<svg width="233" height="73" viewBox="0 0 233 73" fill="none" xmlns="http://www.w3.org/2000/svg">
<g clip-path="url(#clip0_211_473)">
<g clip-path="url(#clip1_211_473)">
<path d="M42.9521 71.4002C40.5939 71.4002 38.4977 70.9053 36.6636 69.9154C34.8586 68.8965 33.432 67.5136 32.3839 65.7668C31.365 64.02 30.8555 62.0112 30.8555 59.7403C30.8555 57.9353 31.1466 56.2904 31.7289 54.8056C32.3111 53.3208 33.1118 52.0399 34.1307 50.9627C35.1788 49.8564 36.4161 49.0121 37.8427 48.4298C39.2983 47.8184 40.8705 47.5127 42.559 47.5127C44.0438 47.5127 45.4267 47.8039 46.7077 48.3861C47.9887 48.9393 49.095 49.7108 50.0266 50.7006C50.9873 51.6905 51.7152 52.8696 52.2101 54.2379C52.7341 55.5771 52.9816 57.0473 52.9525 58.6486L52.9088 60.5701H34.1744L33.17 56.9891H49.0222L48.3671 57.7315V56.6834C48.2798 55.7227 47.9596 54.8638 47.4064 54.1069C46.8533 53.35 46.1545 52.7531 45.3102 52.3164C44.466 51.8797 43.5489 51.6614 42.559 51.6614C40.9869 51.6614 39.6623 51.9671 38.5851 52.5785C37.5079 53.1607 36.6927 54.0341 36.1395 55.1987C35.5864 56.3341 35.3098 57.7461 35.3098 59.4346C35.3098 61.0359 35.6446 62.4333 36.3142 63.627C36.9838 64.7915 37.93 65.694 39.1528 66.3345C40.3755 66.975 41.7875 67.2952 43.3888 67.2952C44.5242 67.2952 45.5723 67.106 46.533 66.7275C47.5229 66.3491 48.5855 65.6649 49.7209 64.675L51.9918 67.863C51.293 68.5617 50.4342 69.1731 49.4152 69.6971C48.4254 70.2211 47.3627 70.6433 46.2273 70.9635C45.121 71.2547 44.0293 71.4002 42.9521 71.4002ZM67.4045 71.4002C65.3084 71.4002 63.4306 70.8907 61.7711 69.8718C60.1408 68.8237 58.8452 67.4117 57.8845 65.6358C56.9237 63.8308 56.4434 61.7783 56.4434 59.4783C56.4434 57.1784 56.9092 55.1404 57.8408 53.3645C58.8015 51.5595 60.0971 50.1475 61.7274 49.1285C63.3578 48.0804 65.2065 47.5564 67.2735 47.5564C68.4089 47.5564 69.5007 47.7456 70.5488 48.1241C71.626 48.4735 72.5867 48.9684 73.431 49.6089C74.2753 50.2203 74.9303 50.9044 75.3962 51.6614C75.8911 52.3892 76.1385 53.1316 76.1385 53.8885L74.8284 53.9759V38.6477H79.3265V70.9635H74.8284V65.5048H75.7018C75.7018 66.2035 75.4689 66.9022 75.0031 67.6009C74.5373 68.2705 73.9114 68.8965 73.1253 69.4787C72.3684 70.061 71.4804 70.5268 70.4614 70.8762C69.4716 71.2255 68.4526 71.4002 67.4045 71.4002ZM68.0159 67.5136C69.3842 67.5136 70.5925 67.1642 71.6405 66.4655C72.6886 65.7668 73.5038 64.8206 74.086 63.627C74.6974 62.4042 75.0031 61.0213 75.0031 59.4783C75.0031 57.9353 74.6974 56.567 74.086 55.3733C73.5038 54.1506 72.6886 53.1898 71.6405 52.4911C70.5925 51.7924 69.3842 51.443 68.0159 51.443C66.6476 51.443 65.4394 51.7924 64.3913 52.4911C63.3432 53.1898 62.5135 54.1506 61.9021 55.3733C61.3199 56.567 61.0287 57.9353 61.0287 59.4783C61.0287 61.0213 61.3199 62.4042 61.9021 63.627C62.5135 64.8206 63.3432 65.7668 64.3913 66.4655C65.4394 67.1642 66.6476 67.5136 68.0159 67.5136ZM86.2607 70.9635V48.0368H90.7587V70.9635H86.2607ZM88.4442 42.971C87.4835 42.971 86.7411 42.7236 86.217 42.2287C85.693 41.7337 85.431 41.035 85.431 40.1325C85.431 39.2882 85.693 38.604 86.217 38.08C86.7702 37.556 87.5126 37.2939 88.4442 37.2939C89.4049 37.2939 90.1473 37.5414 90.6714 38.0363C91.1954 38.5313 91.4574 39.23 91.4574 40.1325C91.4574 40.9768 91.1809 41.6609 90.6277 42.185C90.1037 42.709 89.3758 42.971 88.4442 42.971ZM111.254 70.9635V56.0284C111.254 54.7474 110.788 53.7139 109.857 52.9278C108.954 52.1126 107.804 51.7051 106.407 51.7051C105.126 51.7051 103.961 51.9671 102.913 52.4911C101.894 53.0152 100.962 53.8158 100.118 54.893L97.1922 51.9671C98.5605 50.4823 100.031 49.376 101.603 48.6481C103.204 47.9203 104.922 47.5564 106.756 47.5564C108.503 47.5564 110.017 47.8475 111.298 48.4298C112.579 49.0121 113.568 49.8709 114.267 51.0063C114.966 52.1126 115.315 53.4664 115.315 55.0676V70.9635H111.254ZM104.398 71.4002C102.913 71.4002 101.588 71.1091 100.424 70.5268C99.2593 69.9446 98.3276 69.1439 97.6289 68.125C96.9593 67.0769 96.6245 65.8541 96.6245 64.4567C96.6245 63.2339 96.8429 62.1567 97.2796 61.2251C97.7163 60.2935 98.3568 59.522 99.201 58.9106C100.074 58.2992 101.152 57.8334 102.433 57.5132C103.743 57.1929 105.242 57.0328 106.931 57.0328H113.306L112.913 60.6137H106.363C105.49 60.6137 104.703 60.7011 104.005 60.8758C103.335 61.0213 102.753 61.2688 102.258 61.6181C101.792 61.9384 101.443 62.3314 101.21 62.7972C100.977 63.2339 100.861 63.758 100.861 64.3694C100.861 65.0098 101.021 65.5776 101.341 66.0725C101.661 66.5383 102.098 66.9022 102.651 67.1642C103.204 67.4263 103.845 67.5573 104.572 67.5573C105.621 67.5573 106.61 67.3826 107.542 67.0332C108.503 66.6548 109.347 66.1453 110.075 65.5048C110.832 64.8643 111.414 64.151 111.822 63.3649L112.87 66.2908C112.258 67.3098 111.501 68.1978 110.599 68.9547C109.696 69.7117 108.721 70.3085 107.673 70.7452C106.625 71.1819 105.533 71.4002 104.398 71.4002ZM128 70.9635L118.305 48.0368H123.152L130.14 65.1991L129.31 65.5921L136.777 48.0368H141.406L131.231 70.9635H128ZM155.581 71.4002C153.223 71.4002 151.127 70.9053 149.293 69.9154C147.488 68.8965 146.061 67.5136 145.013 65.7668C143.994 64.02 143.485 62.0112 143.485 59.7403C143.485 57.9353 143.776 56.2904 144.358 54.8056C144.94 53.3208 145.741 52.0399 146.76 50.9627C147.808 49.8564 149.045 49.0121 150.472 48.4298C151.928 47.8184 153.5 47.5127 155.188 47.5127C156.673 47.5127 158.056 47.8039 159.337 48.3861C160.618 48.9393 161.724 49.7108 162.656 50.7006C163.617 51.6905 164.344 52.8696 164.839 54.2379C165.363 55.5771 165.611 57.0473 165.582 58.6486L165.538 60.5701H146.804L145.799 56.9891H161.652L160.996 57.7315V56.6834C160.909 55.7227 160.589 54.8638 160.036 54.1069C159.483 53.35 158.784 52.7531 157.94 52.3164C157.095 51.8797 156.178 51.6614 155.188 51.6614C153.616 51.6614 152.292 51.9671 151.214 52.5785C150.137 53.1607 149.322 54.0341 148.769 55.1987C148.216 56.3341 147.939 57.7461 147.939 59.4346C147.939 61.0359 148.274 62.4333 148.944 63.627C149.613 64.7915 150.559 65.694 151.782 66.3345C153.005 66.975 154.417 67.2952 156.018 67.2952C157.154 67.2952 158.202 67.106 159.162 66.7275C160.152 66.3491 161.215 65.6649 162.35 64.675L164.621 67.863C163.922 68.5617 163.064 69.1731 162.045 69.6971C161.055 70.2211 159.992 70.6433 158.857 70.9635C157.75 71.2547 156.659 71.4002 155.581 71.4002ZM170.47 70.9635V48.0368H175.012V55.2423L174.575 53.4955C174.895 52.3892 175.434 51.3848 176.191 50.4823C176.977 49.5798 177.865 48.8665 178.855 48.3425C179.874 47.8184 180.922 47.5564 181.999 47.5564C182.494 47.5564 182.96 47.6001 183.397 47.6874C183.862 47.7747 184.226 47.8766 184.488 47.9931L183.309 52.8841C182.96 52.7386 182.567 52.6221 182.13 52.5348C181.722 52.4183 181.315 52.3601 180.907 52.3601C180.121 52.3601 179.364 52.5202 178.636 52.8405C177.938 53.1316 177.312 53.5537 176.759 54.1069C176.235 54.6309 175.812 55.2569 175.492 55.9847C175.172 56.6834 175.012 57.4549 175.012 58.2992V70.9635H170.47ZM195.726 71.4002C193.805 71.4002 192.072 71.0654 190.529 70.3958C188.986 69.7262 187.705 68.7364 186.686 67.4263L189.743 64.8061C190.617 65.825 191.563 66.5674 192.582 67.0332C193.63 67.4699 194.809 67.6883 196.119 67.6883C196.643 67.6883 197.124 67.63 197.56 67.5136C198.026 67.368 198.419 67.1642 198.739 66.9022C199.089 66.6402 199.351 66.3345 199.525 65.9851C199.7 65.6067 199.787 65.1991 199.787 64.7624C199.787 64.0054 199.511 63.3941 198.958 62.9282C198.667 62.7245 198.201 62.5061 197.56 62.2732C196.949 62.0112 196.148 61.7492 195.158 61.4871C193.47 61.0504 192.087 60.5555 191.01 60.0024C189.933 59.4492 189.103 58.8233 188.521 58.1245C188.084 57.5714 187.764 56.9746 187.56 56.3341C187.356 55.6645 187.254 54.9366 187.254 54.1506C187.254 52.8696 187.618 51.7342 188.346 50.7443C189.074 49.7545 190.049 48.983 191.272 48.4298C192.524 47.8475 193.921 47.5564 195.464 47.5564C196.541 47.5564 197.604 47.702 198.652 47.9931C199.729 48.2842 200.719 48.7064 201.622 49.2595C202.524 49.8127 203.281 50.4677 203.892 51.2247L201.316 54.0632C200.763 53.5101 200.151 53.0297 199.482 52.6221C198.841 52.1854 198.186 51.8506 197.517 51.6177C196.847 51.3848 196.236 51.2684 195.682 51.2684C195.071 51.2684 194.518 51.3266 194.023 51.443C193.528 51.5595 193.106 51.7342 192.757 51.9671C192.436 52.2 192.189 52.4911 192.014 52.8405C191.84 53.1898 191.752 53.5829 191.752 54.0196C191.781 54.398 191.869 54.762 192.014 55.1113C192.189 55.4316 192.422 55.7081 192.713 55.941C193.033 56.1739 193.514 56.4214 194.154 56.6834C194.795 56.9455 195.61 57.1929 196.6 57.4258C198.055 57.8043 199.249 58.2264 200.18 58.6923C201.141 59.129 201.898 59.6384 202.451 60.2207C203.034 60.7739 203.441 61.4144 203.674 62.1422C203.907 62.87 204.023 63.6852 204.023 64.5877C204.023 65.8978 203.645 67.0769 202.888 68.125C202.16 69.1439 201.17 69.9446 199.918 70.5268C198.667 71.1091 197.269 71.4002 195.726 71.4002ZM219.679 71.4002C217.321 71.4002 215.225 70.9053 213.391 69.9154C211.586 68.8965 210.159 67.5136 209.111 65.7668C208.092 64.02 207.583 62.0112 207.583 59.7403C207.583 57.9353 207.874 56.2904 208.456 54.8056C209.038 53.3208 209.839 52.0399 210.858 50.9627C211.906 49.8564 213.143 49.0121 214.57 48.4298C216.025 47.8184 217.598 47.5127 219.286 47.5127C220.771 47.5127 222.154 47.8039 223.435 48.3861C224.716 48.9393 225.822 49.7108 226.754 50.7006C227.714 51.6905 228.442 52.8696 228.937 54.2379C229.461 55.5771 229.709 57.0473 229.68 58.6486L229.636 60.5701H210.901L209.897 56.9891H225.749L225.094 57.7315V56.6834C225.007 55.7227 224.687 54.8638 224.133 54.1069C223.58 53.35 222.882 52.7531 222.037 52.3164C221.193 51.8797 220.276 51.6614 219.286 51.6614C217.714 51.6614 216.389 51.9671 215.312 52.5785C214.235 53.1607 213.42 54.0341 212.867 55.1987C212.313 56.3341 212.037 57.7461 212.037 59.4346C212.037 61.0359 212.372 62.4333 213.041 63.627C213.711 64.7915 214.657 65.694 215.88 66.3345C217.103 66.975 218.515 67.2952 220.116 67.2952C221.251 67.2952 222.299 67.106 223.26 66.7275C224.25 66.3491 225.313 65.6649 226.448 64.675L228.719 67.863C228.02 68.5617 227.161 69.1731 226.142 69.6971C225.152 70.2211 224.09 70.6433 222.954 70.9635C221.848 71.2547 220.756 71.4002 219.679 71.4002Z" fill="#F3F4F6"/>
<path d="M13.9755 2.12672C14.4691 1.51991 15.4329 1.66914 15.7163 2.39623L17.6322 7.31178C17.9564 8.14361 17.011 8.89821 16.2714 8.39789C14.9024 7.47171 13.1891 7.20647 11.6003 7.67474C10.742 7.92768 10.0738 6.92325 10.6385 6.22904L13.9755 2.12672Z" fill="#28CD88"/>
<path d="M19.6645 31.7664L10.0913 67.2637C9.58635 69.1359 7.88839 70.4365 5.94939 70.4365C3.022 70.4365 0.954492 67.5692 1.87916 64.7916L9.23555 42.6946L14.9186 26.4381C12.417 22.5731 11.0437 17.9312 11.2671 12.9826L11.3726 10.6463C11.4234 9.52138 12.3502 8.63548 13.4762 8.63548C14.6392 8.63548 15.582 9.57828 15.582 10.7413V11.6227C15.582 14.2938 16.2784 16.823 17.511 19.0224L19.5481 13.1954C21.9963 6.19214 28.6045 1.50195 36.0233 1.50195C45.6624 1.50195 53.4764 9.46784 53.4764 19.1068C53.4764 28.4851 46.1808 36.3905 36.8203 36.9686L34.5085 37.1114C28.8756 37.1114 23.698 35.0991 19.6645 31.7664Z" fill="#F3F4F6"/>
<path d="M28.6928 27.0824C33.2815 31.0785 40.2698 30.631 44.3015 26.0828C48.3332 21.5346 47.8816 14.6081 43.2929 10.612C38.7042 6.61594 31.716 7.06348 27.6843 11.6116C23.6526 16.1598 24.1042 23.0863 28.6928 27.0824Z" fill="#071F4D" fill-opacity="0.5"/>
</g>
</g>
<defs>
<clipPath id="clip0_211_473">
<rect width="232.907" height="72.7834" fill="white"/>
</clipPath>
<clipPath id="clip1_211_473">
<rect width="232.907" height="72.7834" fill="white" transform="translate(0.0078125 0.000976562)"/>
</clipPath>
</defs>
</svg>
