<svg width="112" height="112" viewBox="0 0 112 112" fill="none" xmlns="http://www.w3.org/2000/svg">
<path fill-rule="evenodd" clip-rule="evenodd" d="M25.4885 25.4885C10.997 28.0888 0 40.7602 0 56C0 71.2398 10.997 83.9112 25.4885 86.5115C28.0888 101.003 40.7602 112 56 112C71.2398 112 83.9112 101.003 86.5115 86.5115C101.003 83.9112 112 71.2398 112 56C112 40.7602 101.003 28.0888 86.5115 25.4885C83.9112 10.997 71.2398 0 56 0C40.7602 0 28.0888 10.997 25.4885 25.4885ZM27.2413 27.2413C27.0821 28.4717 27 29.7263 27 31C27 38.4981 29.8457 45.3316 34.5159 50.4794L48.2218 48.2218L50.4794 34.5159C45.3316 29.8457 38.4981 27 31 27C29.7263 27 28.4717 27.0821 27.2413 27.2413ZM25.1862 27.5829C25.0632 28.705 25 29.8451 25 31C25 38.5569 27.704 45.4823 32.1972 50.8613L2.00046 55.8352C2.07809 41.8834 12.0079 30.2647 25.1862 27.5829ZM27.5829 25.1862C28.705 25.0632 29.8451 25 31 25C38.5569 25 45.4823 27.704 50.8613 32.1972L55.8352 2.00046C41.8834 2.07809 30.2647 12.0079 27.5829 25.1862ZM50.4794 77.4841L48.2218 63.7782L34.5159 61.5206C29.8457 66.6684 27 73.5019 27 81C27 82.2737 27.0821 83.5283 27.2413 84.7587C28.4717 84.9179 29.7263 85 31 85C38.4981 85 45.3316 82.1543 50.4794 77.4841ZM27.5829 86.8138C28.705 86.9369 29.8451 87 31 87C38.5569 87 45.4823 84.296 50.8613 79.8028L55.8352 110C41.8834 109.922 30.2647 99.9921 27.5829 86.8138ZM25.1862 84.4171C25.0632 83.295 25 82.1549 25 81C25 73.4431 27.704 66.5177 32.1972 61.1387L2.00046 56.1648C2.07809 70.1166 12.0079 81.7353 25.1862 84.4171ZM110 56.1648C109.922 70.1166 99.9921 81.7353 86.8138 84.4171C86.9369 83.295 87 82.1549 87 81C87 73.4431 84.296 66.5177 79.8028 61.1387L110 56.1648ZM85 81C85 73.5019 82.1543 66.6684 77.4841 61.5206L63.7782 63.7782L61.5206 77.4841C66.6684 82.1543 73.5019 85 81 85C82.2737 85 83.5283 84.9179 84.7587 84.7587C84.9179 83.5283 85 82.2737 85 81ZM61.1387 79.8028L56.1648 110C70.1166 109.922 81.7353 99.9921 84.4171 86.8138C83.295 86.9369 82.1549 87 81 87C73.4431 87 66.5177 84.296 61.1387 79.8028ZM86.8138 27.5829C99.9921 30.2647 109.922 41.8834 110 55.8352L79.8028 50.8613C84.296 45.4823 87 38.5569 87 31C87 29.8451 86.9369 28.705 86.8138 27.5829ZM84.7587 27.2413C84.9179 28.4717 85 29.7263 85 31C85 38.4981 82.1543 45.3316 77.4841 50.4794L63.7782 48.2218L61.5206 34.5159C66.6684 29.8457 73.5019 27 81 27C82.2737 27 83.5283 27.0821 84.7587 27.2413ZM84.4171 25.1862C81.7353 12.0079 70.1166 2.07809 56.1648 2.00046L61.1387 32.1972C66.5177 27.704 73.4431 25 81 25C82.1549 25 83.295 25.0632 84.4171 25.1862Z" fill="white"/>
</svg>
