<svg width="225" height="178" viewBox="0 0 225 178" fill="none" xmlns="http://www.w3.org/2000/svg">
<path fill-rule="evenodd" clip-rule="evenodd" d="M174.11 122.655L156.788 94.6408C148.605 110.004 130.077 125.545 105.866 135.513C67.564 151.282 29.5412 147.129 20.9399 126.237C12.3386 105.344 36.416 75.6246 74.7183 59.8556C98.9292 49.888 123.028 47.8803 139.656 53.0285L132.234 20.9382L157.403 61.6431L204.03 50.8583L163.326 76.028L174.11 122.655ZM140.663 57.3837L140.793 57.9451C131.374 56.8601 119.629 58.6197 107.84 63.4733C84.4752 73.0924 69.788 91.2214 75.0348 103.966C80.2816 116.71 103.476 119.243 126.84 109.624C138.629 104.771 148.209 97.7505 154.134 90.3486L154.437 90.8388C153.335 92.6532 152.04 94.4827 150.557 96.3133C142.923 105.737 130.587 114.767 115.323 121.051C100.059 127.335 84.9405 129.608 72.8845 128.291C60.7428 126.965 52.2175 122.093 49.1432 114.625C46.0689 107.158 48.6926 97.6954 56.3811 88.2051C64.0154 78.7818 76.3518 69.7516 91.6157 63.4674C106.88 57.1833 121.998 54.9104 134.054 56.2273C136.396 56.4831 138.604 56.8708 140.663 57.3837ZM140.319 59.9045C140.641 59.9396 140.959 59.978 141.273 60.0197L141.586 61.3727C136.338 61.5806 130.448 62.8662 124.542 65.2976C108.71 71.8155 98.7582 84.0996 102.313 92.7351C105.869 101.37 121.585 103.087 137.416 96.5693C143.322 94.1378 148.41 90.9039 152.283 87.3564L153.014 88.5375C152.82 88.7884 152.621 89.0396 152.418 89.2909C146.73 96.3118 137.512 103.068 126.079 107.775C114.645 112.482 103.343 114.174 94.3604 113.193C85.2924 112.203 79.0983 108.582 76.8842 103.204C74.67 97.8262 76.5199 90.8943 82.262 83.8065C87.95 76.7857 97.1673 70.0299 108.601 65.3227C120.035 60.6154 131.337 58.9234 140.319 59.9045ZM104.296 92.2766C105.772 95.4421 109.618 97.7064 115.478 98.3465C121.438 98.9974 128.988 97.8765 136.655 94.7199C142.525 92.3032 147.506 89.088 151.212 85.6231L148.941 81.9503L104.296 92.2766ZM104.044 91.665C102.864 88.3774 104.001 84.0617 107.712 79.4812C111.486 74.8229 117.636 70.3036 125.303 67.147C131.173 64.7304 136.974 63.5069 142.045 63.3581L143.018 67.5654L104.044 91.665ZM155.205 93.3592C153.544 96.5405 151.398 99.766 148.79 102.985C139.307 114.69 124.008 125.881 105.105 133.663C86.2023 141.446 67.4585 144.27 52.4824 142.634C37.4206 140.989 26.6807 134.927 22.7893 125.475C18.8979 116.023 22.2566 104.157 31.7943 92.3839C41.2777 80.6781 56.577 69.4872 75.4797 61.705C94.3824 53.9228 113.126 51.0981 128.102 52.7339C132.22 53.1837 136.014 53.9635 139.434 55.0524C126.256 52.2875 108.592 54.3154 90.8543 61.618C59.8295 74.3909 40.3268 98.464 47.2938 115.387C54.2608 132.309 85.0594 135.673 116.084 122.9C133.822 115.598 147.794 104.601 155.205 93.3592Z" fill="white"/>
</svg>
