<svg width="186" height="126" viewBox="0 0 186 126" fill="none" xmlns="http://www.w3.org/2000/svg">
<path fill-rule="evenodd" clip-rule="evenodd" d="M155.11 102.655L137.788 74.6408C129.605 90.0036 111.077 105.545 86.8663 115.513C48.564 131.282 10.5412 127.129 1.93988 106.237C-6.66141 85.3444 17.416 55.6246 55.7183 39.8556C79.9292 29.888 104.028 27.8803 120.656 33.0285L113.234 0.938238L138.403 41.6431L185.03 30.8583L144.326 56.028L155.11 102.655ZM121.663 37.3837L121.793 37.9451C112.374 36.8601 100.629 38.6197 88.8396 43.4733C65.4752 53.0924 50.788 71.2214 56.0348 83.9657C61.2816 96.7099 84.4755 99.2433 107.84 89.6242C119.629 84.7706 129.209 77.7505 135.134 70.3486L135.437 70.8388C134.335 72.6532 133.04 74.4827 131.557 76.3133C123.923 85.7366 111.587 94.7668 96.3228 101.051C81.0589 107.335 65.9405 109.608 53.8845 108.291C41.7428 106.965 33.2175 102.093 30.1432 94.6252C27.0689 87.1579 29.6926 77.6954 37.3811 68.2051C45.0154 58.7818 57.3518 49.7516 72.6157 43.4674C87.8797 37.1833 102.998 34.9104 115.054 36.2273C117.396 36.4831 119.604 36.8708 121.663 37.3837ZM121.319 39.9045C121.641 39.9396 121.959 39.978 122.273 40.0197L122.586 41.3727C117.338 41.5806 111.448 42.8662 105.542 45.2976C89.7102 51.8155 79.7582 64.0996 83.3134 72.7351C86.8686 81.3705 102.585 83.0871 118.416 76.5693C124.322 74.1378 129.41 70.9039 133.283 67.3564L134.014 68.5375C133.82 68.7884 133.621 69.0396 133.418 69.2909C127.73 76.3118 118.512 83.0675 107.079 87.7748C95.6448 92.4821 84.3427 94.1741 75.3604 93.193C66.2924 92.2025 60.0983 88.5823 57.8842 83.2043C55.67 77.8262 57.5199 70.8943 63.262 63.8065C68.95 56.7857 78.1673 50.0299 89.601 45.3227C101.035 40.6154 112.337 38.9234 121.319 39.9045ZM85.2957 72.2766C86.7723 75.4421 90.6182 77.7064 96.4784 78.3465C102.438 78.9974 109.988 77.8765 117.655 74.7199C123.525 72.3032 128.506 69.088 132.212 65.6231L129.941 61.9503L85.2957 72.2766ZM85.044 71.665C83.8638 68.3774 85.0007 64.0617 88.7116 59.4812C92.4855 54.8229 98.6359 50.3036 106.303 47.147C112.173 44.7304 117.974 43.5069 123.045 43.3581L124.018 47.5654L85.044 71.665ZM136.205 73.3592C134.544 76.5405 132.398 79.766 129.79 82.9845C120.307 94.6903 105.008 105.881 86.1049 113.663C67.2023 121.446 48.4585 124.27 33.4824 122.634C18.4206 120.989 7.68067 114.927 3.78928 105.475C-0.102123 96.0231 3.25664 84.1565 12.7943 72.3839C22.2777 60.6781 37.577 49.4872 56.4797 41.705C75.3824 33.9228 94.1262 31.0981 109.102 32.7339C113.22 33.1837 117.014 33.9635 120.434 35.0524C107.256 32.2875 89.592 34.3154 71.8543 41.618C40.8295 54.3909 21.3268 78.464 28.2938 95.3866C35.2608 112.309 66.0594 115.673 97.0842 102.9C114.822 95.5977 128.794 84.6013 136.205 73.3592Z" fill="white"/>
</svg>
