<svg width="148" height="210" viewBox="0 0 148 210" fill="none" xmlns="http://www.w3.org/2000/svg">
<path d="M105.383 112.809L110.064 153.017L140.22 159.257L110.064 165.498L105.383 205.706L100.703 165.498L70.5469 159.257L100.703 153.017L105.383 112.809Z" fill="white"/>
<path d="M56.6093 24.0439L64.2148 89.3824L113.219 99.523L64.2148 109.664L56.6093 175.002L49.0038 109.664L0 99.523L49.0038 89.3824L56.6093 24.0439Z" fill="white"/>
<path d="M17.4098 112.809L18.8724 125.374L28.2962 127.324L18.8724 129.274L17.4098 141.839L15.9472 129.274L6.52344 127.324L15.9472 125.374L17.4098 112.809Z" fill="white"/>
<path d="M97.4098 40.8066L98.8724 53.3717L108.296 55.3218L98.8724 57.272L97.4098 69.837L95.9472 57.272L86.5234 55.3218L95.9472 53.3717L97.4098 40.8066Z" fill="white"/>
<path d="M28.2962 0.806641L31.2214 25.9368L50.069 29.837L31.2214 33.7373L28.2962 58.8674L25.3711 33.7373L6.52344 29.837L25.3711 25.9368L28.2962 0.806641Z" fill="white"/>
</svg>
