<svg width="49" height="48" viewBox="0 0 49 48" fill="none" xmlns="http://www.w3.org/2000/svg">
<path d="M19.826 34H29.172M24.5 6V8M37.228 11.272L35.814 12.686M42.5 24H40.5M8.5 24H6.5M13.186 12.686L11.772 11.272M17.428 31.072C16.0297 29.6734 15.0776 27.8915 14.692 25.9518C14.3063 24.0121 14.5045 22.0015 15.2615 20.1744C16.0184 18.3473 17.3001 16.7857 18.9446 15.687C20.589 14.5883 22.5223 14.0019 24.5 14.0019C26.4777 14.0019 28.411 14.5883 30.0554 15.687C31.6999 16.7857 32.9816 18.3473 33.7385 20.1744C34.4955 22.0015 34.6937 24.0121 34.308 25.9518C33.9224 27.8915 32.9703 29.6734 31.572 31.072L30.476 32.166C29.8494 32.7927 29.3524 33.5367 29.0134 34.3555C28.6743 35.1742 28.4999 36.0518 28.5 36.938V38C28.5 39.0609 28.0786 40.0783 27.3284 40.8284C26.5783 41.5786 25.5609 42 24.5 42C23.4391 42 22.4217 41.5786 21.6716 40.8284C20.9214 40.0783 20.5 39.0609 20.5 38V36.938C20.5 35.148 19.788 33.43 18.524 32.166L17.428 31.072Z" stroke="#3B3B5D" stroke-width="2" stroke-linecap="round" stroke-linejoin="round"/>
</svg>
