<svg width="49" height="48" viewBox="0 0 49 48" fill="none" xmlns="http://www.w3.org/2000/svg">
<path d="M11.3016 16.2C11.3016 14.7679 11.8705 13.3943 12.8832 12.3816C13.8959 11.369 15.2694 10.8 16.7016 10.8C18.1337 10.8 19.5072 11.369 20.5199 12.3816C21.5326 13.3943 22.1016 14.7679 22.1016 16.2C22.1016 17.6322 21.5326 19.0057 20.5199 20.0184C19.5072 21.0311 18.1337 21.6 16.7016 21.6C15.2694 21.6 13.8959 21.0311 12.8832 20.0184C11.8705 19.0057 11.3016 17.6322 11.3016 16.2ZM16.7016 8.40002C14.6329 8.40002 12.6489 9.22181 11.1861 10.6846C9.72335 12.1474 8.90156 14.1313 8.90156 16.2C8.90156 18.2687 9.72335 20.2527 11.1861 21.7155C12.6489 23.1782 14.6329 24 16.7016 24C18.7703 24 20.7542 23.1782 22.217 21.7155C23.6798 20.2527 24.5016 18.2687 24.5016 16.2C24.5016 14.1313 23.6798 12.1474 22.217 10.6846C20.7542 9.22181 18.7703 8.40002 16.7016 8.40002ZM30.3504 36.348C31.6416 36.876 33.2664 37.2 35.3016 37.2C39.816 37.2 42.312 35.5968 43.6272 33.7584C44.3133 32.7937 44.7435 31.6707 44.8776 30.4944C44.8896 30.3852 44.8976 30.2755 44.9016 30.1656V30C44.9016 29.5273 44.8084 29.0591 44.6275 28.6224C44.4466 28.1856 44.1814 27.7887 43.8471 27.4544C43.5129 27.1201 43.116 26.855 42.6792 26.6741C42.2424 26.4931 41.7743 26.4 41.3016 26.4H30.1896C30.7656 27.096 31.1976 27.9096 31.4496 28.8H41.3016C41.6198 28.8 41.925 28.9265 42.1501 29.1515C42.3751 29.3765 42.5016 29.6818 42.5016 30V30.1296L42.4896 30.2496C42.3976 31.0106 42.1172 31.7365 41.6736 32.3616C40.8888 33.4632 39.1848 34.8 35.3016 34.8C33.5448 34.8 32.2344 34.5264 31.2528 34.1256C31.056 34.7976 30.7704 35.556 30.3504 36.348ZM4.10156 31.2C4.10156 29.927 4.60728 28.7061 5.50745 27.8059C6.40762 26.9057 7.62852 26.4 8.90156 26.4H24.5016C25.7746 26.4 26.9955 26.9057 27.8957 27.8059C28.7958 28.7061 29.3016 29.927 29.3016 31.2V31.4016C29.3016 31.4256 29.3016 31.4568 29.2968 31.4976C29.2676 31.9728 29.1993 32.4448 29.0928 32.9088C28.8888 33.792 28.4832 34.9728 27.6648 36.1584C25.9824 38.592 22.7328 40.8 16.7016 40.8C10.6704 40.8 7.42076 38.592 5.73836 36.1584C4.85234 34.8679 4.29988 33.3779 4.13036 31.8216C4.11602 31.682 4.10642 31.5419 4.10156 31.4016V31.2ZM6.50156 31.344V31.3872L6.51836 31.5864C6.64841 32.7369 7.05881 33.8379 7.71356 34.7928C8.88236 36.4824 11.3328 38.4 16.7016 38.4C22.0704 38.4 24.5208 36.4824 25.6896 34.7928C26.3445 33.838 26.7549 32.737 26.8848 31.5864C26.8926 31.5203 26.8974 31.4538 26.8992 31.3872L26.9016 31.3464V31.2C26.9016 30.5635 26.6487 29.9531 26.1986 29.503C25.7485 29.0529 25.1381 28.8 24.5016 28.8H8.90156C8.26504 28.8 7.65459 29.0529 7.20451 29.503C6.75442 29.9531 6.50156 30.5635 6.50156 31.2V31.344ZM31.7016 18C31.7016 17.0452 32.0808 16.1296 32.756 15.4544C33.4311 14.7793 34.3468 14.4 35.3016 14.4C36.2563 14.4 37.172 14.7793 37.8471 15.4544C38.5223 16.1296 38.9016 17.0452 38.9016 18C38.9016 18.9548 38.5223 19.8705 37.8471 20.5456C37.172 21.2207 36.2563 21.6 35.3016 21.6C34.3468 21.6 33.4311 21.2207 32.756 20.5456C32.0808 19.8705 31.7016 18.9548 31.7016 18ZM35.3016 12C33.7103 12 32.1841 12.6322 31.0589 13.7574C29.9337 14.8826 29.3016 16.4087 29.3016 18C29.3016 19.5913 29.9337 21.1174 31.0589 22.2427C32.1841 23.3679 33.7103 24 35.3016 24C36.8929 24 38.419 23.3679 39.5442 22.2427C40.6694 21.1174 41.3016 19.5913 41.3016 18C41.3016 16.4087 40.6694 14.8826 39.5442 13.7574C38.419 12.6322 36.8929 12 35.3016 12Z" fill="#3B3B5D"/>
</svg>
