<svg width="49" height="48" viewBox="0 0 49 48" fill="none" xmlns="http://www.w3.org/2000/svg">
<path d="M20.5 20C24.9183 20 28.5 16.4183 28.5 12C28.5 7.58172 24.9183 4 20.5 4C16.0817 4 12.5 7.58172 12.5 12C12.5 16.4183 16.0817 20 20.5 20Z" stroke="#3B3B5D" stroke-width="2"/>
<path d="M36.5 35C36.5 39.97 36.5 44 20.5 44C4.5 44 4.5 39.97 4.5 35C4.5 30.03 11.664 26 20.5 26C29.336 26 36.5 30.03 36.5 35Z" stroke="#3B3B5D" stroke-width="2"/>
<path d="M38.5 4C38.5 4 42.5 6.4 42.5 12C42.5 17.6 38.5 20 38.5 20M34.5 8C34.5 8 36.5 9.2 36.5 12C36.5 14.8 34.5 16 34.5 16" stroke="#3B3B5D" stroke-width="2" stroke-linecap="round"/>
</svg>
