<svg width="43" height="42" viewBox="0 0 43 42" fill="none" xmlns="http://www.w3.org/2000/svg">
<path d="M11.5028 25C10.6298 25.0013 9.76752 25.1931 8.97627 25.562C8.18502 25.9309 7.4838 26.4681 6.92157 27.136C6.35934 27.8039 5.94963 28.5864 5.72104 29.429C5.49245 30.2716 5.45049 31.1539 5.59808 32.0143C5.74567 32.8748 6.07927 33.6927 6.57558 34.4109C7.07188 35.1292 7.71895 35.7304 8.47162 36.1728C9.22429 36.6151 10.0644 36.8879 10.9334 36.9721C11.8024 37.0562 12.6792 36.9497 13.5028 36.66" stroke="#3B3B5D" stroke-width="1.5" stroke-linecap="round" stroke-linejoin="round"/>
<path d="M6.02978 28.21C4.83291 27.6338 3.79835 26.7687 3.01948 25.6926C2.24062 24.6165 1.74195 23.3635 1.5685 22.0465C1.39504 20.7295 1.55226 19.3901 2.02595 18.1491C2.49965 16.908 3.27491 15.8045 4.28178 14.938M4.34178 14.776C3.68587 13.7945 3.39838 12.6126 3.53022 11.4395C3.66206 10.2664 4.20472 9.17776 5.06213 8.36633C5.91954 7.5549 7.0364 7.07302 8.21499 7.00598C9.39359 6.93894 10.5579 7.29107 11.5018 8.00004M11.9778 8.13004C11.6587 7.45213 11.4961 6.71118 11.5019 5.96196C11.5078 5.21275 11.6819 4.47442 12.0114 3.80156C12.341 3.12869 12.8176 2.53849 13.4059 2.07458C13.9943 1.61067 14.6793 1.28492 15.4105 1.12139C16.1417 0.95787 16.9003 0.960759 17.6302 1.12985C18.3601 1.29893 19.0427 1.6299 19.6275 2.09827C20.2122 2.56664 20.6843 3.16046 21.0087 3.83581C21.3332 4.51117 21.5017 5.2508 21.5018 6.00004V37C21.5018 38.0609 21.0804 39.0783 20.3302 39.8285C19.5801 40.5786 18.5626 41 17.5018 41C16.4409 41 15.4235 40.5786 14.6734 39.8285C13.9232 39.0783 13.5018 38.0609 13.5018 37M21.5018 11C21.5018 12.5913 22.1339 14.1175 23.2591 15.2427C24.3844 16.3679 25.9105 17 27.5018 17M31.5018 25C32.3748 25.0013 33.237 25.1931 34.0283 25.5621C34.8195 25.931 35.5208 26.4681 36.083 27.136C36.6452 27.8039 37.0549 28.5865 37.2835 29.429C37.5121 30.2716 37.5541 31.1539 37.4065 32.0144C37.2589 32.8748 36.9253 33.6927 36.429 34.411C35.9327 35.1292 35.2856 35.7305 34.5329 36.1728C33.7803 36.6152 32.9401 36.8879 32.0712 36.9721C31.2022 37.0562 30.3253 36.9497 29.5018 36.66" stroke="#3B3B5D" stroke-width="1.5" stroke-linecap="round" stroke-linejoin="round"/>
<path d="M36.972 28.21C38.1689 27.6338 39.2034 26.7687 39.9823 25.6926C40.7612 24.6165 41.2598 23.3635 41.4333 22.0465C41.6067 20.7295 41.4495 19.3901 40.9758 18.1491C40.5021 16.908 39.7269 15.8045 38.72 14.938M38.66 14.776C39.3159 13.7945 39.6034 12.6126 39.4716 11.4395C39.3397 10.2664 38.7971 9.17776 37.9396 8.36633C37.0822 7.5549 35.9654 7.07302 34.7868 7.00598C33.6082 6.93894 32.4439 7.29107 31.5 8.00004M21.5 6.00004C21.5001 5.2508 21.6686 4.51117 21.9931 3.83581C22.3175 3.16046 22.7895 2.56664 23.3743 2.09827C23.9591 1.6299 24.6417 1.29893 25.3716 1.12985C26.1015 0.960759 26.8601 0.95787 27.5913 1.12139C28.3224 1.28492 29.0075 1.61067 29.5959 2.07458C30.1842 2.53849 30.6608 3.12869 30.9903 3.80156C31.3199 4.47442 31.494 5.21275 31.4998 5.96196C31.5057 6.71118 31.3431 7.45213 31.024 8.13004M29.5 37C29.5 38.0609 29.0786 39.0783 28.3284 39.8285C27.5783 40.5786 26.5609 41 25.5 41C24.4391 41 23.4217 40.5786 22.6716 39.8285C21.9214 39.0783 21.5 38.0609 21.5 37" stroke="#3B3B5D" stroke-width="1.5" stroke-linecap="round" stroke-linejoin="round"/>
</svg>
