<svg width="1369" height="781" viewBox="0 0 1369 781" fill="none" xmlns="http://www.w3.org/2000/svg">
<rect x="306.429" y="598.045" width="97" height="97" transform="rotate(-131.531 306.429 598.045)" stroke="#0094FF" stroke-width="3"/>
<circle cx="1121.88" cy="407.88" r="48.5" transform="rotate(116.054 1121.88 407.88)" stroke="#FFF500" stroke-width="3"/>
<path d="M1337.47 200.071L1320.07 279.596L1259.9 224.763L1337.47 200.071Z" stroke="#FF0000" stroke-width="3"/>
<rect x="951.732" y="96.3588" width="98" height="98" transform="rotate(28.9073 951.732 96.3588)" stroke="#0094FF" stroke-width="2"/>
<rect x="616.321" y="143.152" width="44.7704" height="44.7704" transform="rotate(28.9073 616.321 143.152)" stroke="#0094FF"/>
<circle cx="1239" cy="653" r="48.5" stroke="#EB00FF" stroke-width="3"/>
<circle cx="719" cy="-6" r="49.5" stroke="#FFF500"/>
<circle cx="719.315" cy="709.685" r="48.5" transform="rotate(133.466 719.315 709.685)" stroke="#FFF500" stroke-width="3"/>
<path d="M-14.7032 691.5L26 621L66.7032 691.5H-14.7032Z" stroke="#00D1FF" stroke-width="3"/>
<path d="M328.58 -26.4905L407.667 -45.7848L384.833 32.3536L328.58 -26.4905Z" stroke="#FF0000" stroke-width="3"/>
<rect x="176.928" y="149.038" width="97" height="97" transform="rotate(28.9073 176.928 149.038)" stroke="#28CD88" stroke-width="3"/>
</svg>
