<svg width="128" height="40" viewBox="0 0 128 40" fill="none" xmlns="http://www.w3.org/2000/svg">
<path d="M23.608 39.24C22.312 39.24 21.16 38.968 20.152 38.424C19.16 37.864 18.376 37.104 17.8 36.144C17.24 35.184 16.96 34.08 16.96 32.832C16.96 31.84 17.12 30.936 17.44 30.12C17.76 29.304 18.2 28.6 18.76 28.008C19.336 27.4 20.016 26.936 20.8 26.616C21.6 26.28 22.464 26.112 23.392 26.112C24.208 26.112 24.968 26.272 25.672 26.592C26.376 26.896 26.984 27.32 27.496 27.864C28.024 28.408 28.424 29.056 28.696 29.808C28.984 30.544 29.12 31.352 29.104 32.232L29.08 33.288H18.784L18.232 31.32H26.944L26.584 31.728V31.152C26.536 30.624 26.36 30.152 26.056 29.736C25.752 29.32 25.368 28.992 24.904 28.752C24.44 28.512 23.936 28.392 23.392 28.392C22.528 28.392 21.8 28.56 21.208 28.896C20.616 29.216 20.168 29.696 19.864 30.336C19.56 30.96 19.408 31.736 19.408 32.664C19.408 33.544 19.592 34.312 19.96 34.968C20.328 35.608 20.848 36.104 21.52 36.456C22.192 36.808 22.968 36.984 23.848 36.984C24.472 36.984 25.048 36.88 25.576 36.672C26.12 36.464 26.704 36.088 27.328 35.544L28.576 37.296C28.192 37.68 27.72 38.016 27.16 38.304C26.616 38.592 26.032 38.824 25.408 39C24.8 39.16 24.2 39.24 23.608 39.24ZM37.0465 39.24C35.8945 39.24 34.8625 38.96 33.9505 38.4C33.0545 37.824 32.3425 37.048 31.8145 36.072C31.2865 35.08 31.0225 33.952 31.0225 32.688C31.0225 31.424 31.2785 30.304 31.7905 29.328C32.3185 28.336 33.0305 27.56 33.9265 27C34.8225 26.424 35.8385 26.136 36.9745 26.136C37.5985 26.136 38.1985 26.24 38.7745 26.448C39.3665 26.64 39.8945 26.912 40.3585 27.264C40.8225 27.6 41.1825 27.976 41.4385 28.392C41.7105 28.792 41.8465 29.2 41.8465 29.616L41.1265 29.664V21.24H43.5985V39H41.1265V36H41.6065C41.6065 36.384 41.4785 36.768 41.2225 37.152C40.9665 37.52 40.6225 37.864 40.1905 38.184C39.7745 38.504 39.2865 38.76 38.7265 38.952C38.1825 39.144 37.6225 39.24 37.0465 39.24ZM37.3825 37.104C38.1345 37.104 38.7985 36.912 39.3745 36.528C39.9505 36.144 40.3985 35.624 40.7185 34.968C41.0545 34.296 41.2225 33.536 41.2225 32.688C41.2225 31.84 41.0545 31.088 40.7185 30.432C40.3985 29.76 39.9505 29.232 39.3745 28.848C38.7985 28.464 38.1345 28.272 37.3825 28.272C36.6305 28.272 35.9665 28.464 35.3905 28.848C34.8145 29.232 34.3585 29.76 34.0225 30.432C33.7025 31.088 33.5425 31.84 33.5425 32.688C33.5425 33.536 33.7025 34.296 34.0225 34.968C34.3585 35.624 34.8145 36.144 35.3905 36.528C35.9665 36.912 36.6305 37.104 37.3825 37.104ZM47.4094 39V26.4H49.8814V39H47.4094ZM48.6094 23.616C48.0814 23.616 47.6734 23.48 47.3854 23.208C47.0974 22.936 46.9534 22.552 46.9534 22.056C46.9534 21.592 47.0974 21.216 47.3854 20.928C47.6894 20.64 48.0974 20.496 48.6094 20.496C49.1374 20.496 49.5454 20.632 49.8334 20.904C50.1214 21.176 50.2654 21.56 50.2654 22.056C50.2654 22.52 50.1134 22.896 49.8094 23.184C49.5214 23.472 49.1214 23.616 48.6094 23.616ZM61.1451 39V30.792C61.1451 30.088 60.8891 29.52 60.3771 29.088C59.8811 28.64 59.2491 28.416 58.4811 28.416C57.7771 28.416 57.1371 28.56 56.5611 28.848C56.0011 29.136 55.4891 29.576 55.0251 30.168L53.4171 28.56C54.1691 27.744 54.9771 27.136 55.8411 26.736C56.7211 26.336 57.6651 26.136 58.6731 26.136C59.6331 26.136 60.4651 26.296 61.1691 26.616C61.8731 26.936 62.4171 27.408 62.8011 28.032C63.1851 28.64 63.3771 29.384 63.3771 30.264V39H61.1451ZM57.3771 39.24C56.5611 39.24 55.8331 39.08 55.1931 38.76C54.5531 38.44 54.0411 38 53.6571 37.44C53.2891 36.864 53.1051 36.192 53.1051 35.424C53.1051 34.752 53.2251 34.16 53.4651 33.648C53.7051 33.136 54.0571 32.712 54.5211 32.376C55.0011 32.04 55.5931 31.784 56.2971 31.608C57.0171 31.432 57.8411 31.344 58.7691 31.344H62.2731L62.0571 33.312H58.4571C57.9771 33.312 57.5451 33.36 57.1611 33.456C56.7931 33.536 56.4731 33.672 56.2011 33.864C55.9451 34.04 55.7531 34.256 55.6251 34.512C55.4971 34.752 55.4331 35.04 55.4331 35.376C55.4331 35.728 55.5211 36.04 55.6971 36.312C55.8731 36.568 56.1131 36.768 56.4171 36.912C56.7211 37.056 57.0731 37.128 57.4731 37.128C58.0491 37.128 58.5931 37.032 59.1051 36.84C59.6331 36.632 60.0971 36.352 60.4971 36C60.9131 35.648 61.2331 35.256 61.4571 34.824L62.0331 36.432C61.6971 36.992 61.2811 37.48 60.7851 37.896C60.2891 38.312 59.7531 38.64 59.1771 38.88C58.6011 39.12 58.0011 39.24 57.3771 39.24ZM70.3482 39L65.0202 26.4H67.6842L71.5242 35.832L71.0682 36.048L75.1722 26.4H77.7162L72.1242 39H70.3482ZM85.5064 39.24C84.2104 39.24 83.0584 38.968 82.0504 38.424C81.0584 37.864 80.2744 37.104 79.6984 36.144C79.1384 35.184 78.8584 34.08 78.8584 32.832C78.8584 31.84 79.0184 30.936 79.3384 30.12C79.6584 29.304 80.0984 28.6 80.6584 28.008C81.2344 27.4 81.9144 26.936 82.6984 26.616C83.4984 26.28 84.3624 26.112 85.2904 26.112C86.1064 26.112 86.8664 26.272 87.5704 26.592C88.2744 26.896 88.8824 27.32 89.3944 27.864C89.9224 28.408 90.3224 29.056 90.5944 29.808C90.8824 30.544 91.0184 31.352 91.0024 32.232L90.9784 33.288H80.6824L80.1304 31.32H88.8424L88.4824 31.728V31.152C88.4344 30.624 88.2584 30.152 87.9544 29.736C87.6504 29.32 87.2664 28.992 86.8024 28.752C86.3384 28.512 85.8344 28.392 85.2904 28.392C84.4264 28.392 83.6984 28.56 83.1064 28.896C82.5144 29.216 82.0664 29.696 81.7624 30.336C81.4584 30.96 81.3064 31.736 81.3064 32.664C81.3064 33.544 81.4904 34.312 81.8584 34.968C82.2264 35.608 82.7464 36.104 83.4184 36.456C84.0904 36.808 84.8664 36.984 85.7464 36.984C86.3704 36.984 86.9464 36.88 87.4744 36.672C88.0184 36.464 88.6024 36.088 89.2264 35.544L90.4744 37.296C90.0904 37.68 89.6184 38.016 89.0584 38.304C88.5144 38.592 87.9304 38.824 87.3064 39C86.6984 39.16 86.0984 39.24 85.5064 39.24ZM93.6889 39V26.4H96.1849V30.36L95.9449 29.4C96.1209 28.792 96.4169 28.24 96.8329 27.744C97.2649 27.248 97.7529 26.856 98.2969 26.568C98.8569 26.28 99.4329 26.136 100.025 26.136C100.297 26.136 100.553 26.16 100.793 26.208C101.049 26.256 101.249 26.312 101.393 26.376L100.745 29.064C100.553 28.984 100.337 28.92 100.097 28.872C99.8729 28.808 99.6489 28.776 99.4249 28.776C98.9929 28.776 98.5769 28.864 98.1769 29.04C97.7929 29.2 97.4489 29.432 97.1449 29.736C96.8569 30.024 96.6249 30.368 96.4489 30.768C96.2729 31.152 96.1849 31.576 96.1849 32.04V39H93.6889ZM107.569 39.24C106.513 39.24 105.561 39.056 104.713 38.688C103.865 38.32 103.161 37.776 102.601 37.056L104.281 35.616C104.761 36.176 105.281 36.584 105.841 36.84C106.417 37.08 107.065 37.2 107.785 37.2C108.073 37.2 108.337 37.168 108.577 37.104C108.833 37.024 109.049 36.912 109.225 36.768C109.417 36.624 109.561 36.456 109.657 36.264C109.753 36.056 109.801 35.832 109.801 35.592C109.801 35.176 109.649 34.84 109.345 34.584C109.185 34.472 108.929 34.352 108.577 34.224C108.241 34.08 107.801 33.936 107.257 33.792C106.329 33.552 105.569 33.28 104.977 32.976C104.385 32.672 103.929 32.328 103.609 31.944C103.369 31.64 103.193 31.312 103.081 30.96C102.969 30.592 102.913 30.192 102.913 29.76C102.913 29.056 103.113 28.432 103.513 27.888C103.913 27.344 104.449 26.92 105.121 26.616C105.809 26.296 106.577 26.136 107.425 26.136C108.017 26.136 108.601 26.216 109.177 26.376C109.769 26.536 110.313 26.768 110.809 27.072C111.305 27.376 111.721 27.736 112.057 28.152L110.641 29.712C110.337 29.408 110.001 29.144 109.633 28.92C109.281 28.68 108.921 28.496 108.553 28.368C108.185 28.24 107.849 28.176 107.545 28.176C107.209 28.176 106.905 28.208 106.633 28.272C106.361 28.336 106.129 28.432 105.937 28.56C105.761 28.688 105.625 28.848 105.529 29.04C105.433 29.232 105.385 29.448 105.385 29.688C105.401 29.896 105.449 30.096 105.529 30.288C105.625 30.464 105.753 30.616 105.913 30.744C106.089 30.872 106.353 31.008 106.705 31.152C107.057 31.296 107.505 31.432 108.049 31.56C108.849 31.768 109.505 32 110.017 32.256C110.545 32.496 110.961 32.776 111.265 33.096C111.585 33.4 111.809 33.752 111.937 34.152C112.065 34.552 112.129 35 112.129 35.496C112.129 36.216 111.921 36.864 111.505 37.44C111.105 38 110.561 38.44 109.873 38.76C109.185 39.08 108.417 39.24 107.569 39.24ZM120.733 39.24C119.437 39.24 118.285 38.968 117.277 38.424C116.285 37.864 115.501 37.104 114.925 36.144C114.365 35.184 114.085 34.08 114.085 32.832C114.085 31.84 114.245 30.936 114.565 30.12C114.885 29.304 115.325 28.6 115.885 28.008C116.461 27.4 117.141 26.936 117.925 26.616C118.725 26.28 119.589 26.112 120.517 26.112C121.333 26.112 122.093 26.272 122.797 26.592C123.501 26.896 124.109 27.32 124.621 27.864C125.149 28.408 125.549 29.056 125.821 29.808C126.109 30.544 126.245 31.352 126.229 32.232L126.205 33.288H115.909L115.357 31.32H124.069L123.709 31.728V31.152C123.661 30.624 123.485 30.152 123.181 29.736C122.877 29.32 122.493 28.992 122.029 28.752C121.565 28.512 121.061 28.392 120.517 28.392C119.653 28.392 118.925 28.56 118.333 28.896C117.741 29.216 117.293 29.696 116.989 30.336C116.685 30.96 116.533 31.736 116.533 32.664C116.533 33.544 116.717 34.312 117.085 34.968C117.453 35.608 117.973 36.104 118.645 36.456C119.317 36.808 120.093 36.984 120.973 36.984C121.597 36.984 122.173 36.88 122.701 36.672C123.245 36.464 123.829 36.088 124.453 35.544L125.701 37.296C125.317 37.68 124.845 38.016 124.285 38.304C123.741 38.592 123.157 38.824 122.533 39C121.925 39.16 121.325 39.24 120.733 39.24Z" fill="#3B3B5D"/>
<path d="M7.68069 1.16861C7.95196 0.835125 8.48169 0.917137 8.63744 1.31673L9.69037 4.0182C9.86854 4.47535 9.34895 4.89006 8.94251 4.6151C8.19011 4.10609 7.24852 3.96032 6.37535 4.21767C5.90368 4.35668 5.53642 3.80467 5.84676 3.42315L7.68069 1.16861Z" fill="url(#paint0_linear_80_52)"/>
<path d="M10.8072 17.4578L5.54596 36.9663C5.26848 37.9952 4.33532 38.71 3.26969 38.71C1.66087 38.71 0.524615 37.1342 1.03279 35.6077L5.07569 23.4637L8.19894 14.5295C6.82416 12.4054 6.06941 9.8543 6.19218 7.1347L6.25015 5.85071C6.27806 5.23248 6.78741 4.74561 7.40627 4.74561C8.04543 4.74561 8.56357 5.26375 8.56357 5.90291V6.38732C8.56357 7.85531 8.94627 9.24527 9.62369 10.454L10.7432 7.25166C12.0887 3.40281 15.7204 0.825195 19.7976 0.825195C25.095 0.825195 29.3894 5.20306 29.3894 10.5004C29.3894 15.6545 25.3799 19.9991 20.2356 20.3168L18.9651 20.3953C15.8694 20.3953 13.0239 19.2894 10.8072 17.4578Z" fill="#3B3B5D"/>
<ellipse cx="6.05497" cy="6.04806" rx="6.05497" ry="6.04806" transform="matrix(0.754123 0.656733 -0.663342 0.748316 19.2266 1.85522)" fill="#FBFBFB"/>
<defs>
<linearGradient id="paint0_linear_80_52" x1="6.95498" y1="0.743635" x2="7.55356" y2="5.95649" gradientUnits="userSpaceOnUse">
<stop stop-color="#28CD88"/>
<stop offset="1" stop-color="#28CD88"/>
</linearGradient>
</defs>
</svg>
